<svg width="18" height="18" viewBox="0 0 18 18" fill="none" xmlns="http://www.w3.org/2000/svg">
<path d="M12.4275 16.5C12.6267 16.5011 12.8241 16.4626 13.0083 16.3866C13.1924 16.3107 13.3596 16.1988 13.5 16.0575L15.5325 14.025C15.6722 13.8845 15.7506 13.6944 15.7506 13.4963C15.7506 13.2981 15.6722 13.108 15.5325 12.9675L12.5325 9.9675C12.392 9.82781 12.2019 9.7494 12.0038 9.7494C11.8056 9.7494 11.6155 9.82781 11.475 9.9675L10.275 11.16C9.44421 10.9385 8.67476 10.5307 8.02502 9.9675C7.46337 9.31673 7.05575 8.54764 6.83252 7.7175L8.02502 6.5175C8.16471 6.37698 8.24312 6.18689 8.24312 5.98875C8.24312 5.79061 8.16471 5.60052 8.02502 5.46L5.02502 2.46C4.8845 2.32031 4.69441 2.2419 4.49627 2.2419C4.29814 2.2419 4.10805 2.32031 3.96753 2.46L1.94252 4.5C1.80125 4.64043 1.68936 4.80759 1.61338 4.99174C1.53741 5.17588 1.49887 5.3733 1.50003 5.5725C1.56807 8.45422 2.71958 11.2045 4.72503 13.275C6.79556 15.2804 9.5458 16.432 12.4275 16.5ZM4.50003 4.0575L6.44252 6L5.47503 6.9675C5.38339 7.05333 5.31477 7.1608 5.27546 7.28005C5.23615 7.39929 5.2274 7.5265 5.25003 7.65C5.53035 8.90278 6.12386 10.064 6.97503 11.025C7.93529 11.8773 9.0968 12.4709 10.35 12.75C10.4717 12.7754 10.5977 12.7702 10.7168 12.7349C10.836 12.6995 10.9444 12.6351 11.0325 12.5475L12 11.5575L13.9425 13.5L12.4425 15C9.95532 14.936 7.58215 13.9433 5.79002 12.2175C4.05971 10.4246 3.06423 8.04833 3.00003 5.5575L4.50003 4.0575ZM15 8.25H16.5C16.5195 7.35825 16.3582 6.47179 16.0258 5.64405C15.6935 4.81632 15.197 4.06443 14.5663 3.43372C13.9356 2.80301 13.1837 2.30652 12.356 1.97419C11.5282 1.64185 10.6418 1.48055 9.75002 1.5V3C10.446 2.97593 11.1394 3.09526 11.7872 3.35057C12.4351 3.60589 13.0235 3.99174 13.5159 4.48413C14.0083 4.97652 14.3941 5.56493 14.6494 6.21278C14.9048 6.86063 15.0241 7.55407 15 8.25Z" fill="white"/>
<path d="M9.75 6C11.325 6 12 6.675 12 8.25H13.5C13.5 5.835 12.165 4.5 9.75 4.5V6Z" fill="white"/>
</svg>
